<?xml version="1.0" encoding="UTF-8"?>
<!DOCTYPE svg PUBLIC "-//W3C//DTD SVG 1.1//EN" "http://www.w3.org/Graphics/SVG/1.1/DTD/svg11.dtd">
<!-- Creator: CorelDRAW X7 -->
<svg xmlns="http://www.w3.org/2000/svg" xml:space="preserve" width="64px" height="64px" version="1.1" style="shape-rendering:geometricPrecision; text-rendering:geometricPrecision; image-rendering:optimizeQuality; fill-rule:evenodd; clip-rule:evenodd"
viewBox="0 0 64 64"
 xmlns:xlink="http://www.w3.org/1999/xlink">
 <defs>
  <style type="text/css">
   <![CDATA[
    .fil0 {fill:#F4F4F4}
   ]]>
  </style>
 </defs>
 <g id="Layer_x0020_1">
  <metadata id="CorelCorpID_0Corel-Layer"/>
  <path class="fil0" d="M20 3l28 0c7,1 14,6 16,14l0 18c-2,4 -3,8 -4,13 1,-9 0,-17 1,-25 0,-5 -2,-10 -6,-13 -6,-5 -14,-3 -21,-3 -7,0 -14,-2 -20,2 -4,3 -6,7 -6,11 0,9 0,18 0,27 -1,-4 -2,-8 -4,-12l0 -16c1,-8 8,-15 16,-16z"/>
  <path class="fil0" d="M17 24c-1,-4 3,-7 6,-9 4,1 6,4 8,8 -1,2 -3,4 -4,6 2,3 4,6 6,8 -1,1 -3,1 -5,2 -4,-5 -9,-9 -11,-15z"/>
  <path class="fil0" d="M60 48c1,-5 2,-9 4,-13l0 14c-1,2 -2,4 -3,6 -2,-3 -1,-5 -1,-7z"/>
  <path class="fil0" d="M28 39c2,-1 4,-1 5,-2 2,1 3,2 4,3 3,-1 5,-3 8,-3 4,2 8,5 6,10 2,2 5,5 4,9 0,4 -3,6 -6,6l-29 0c-8,-1 -15,-7 -16,-15l0 -12c2,4 3,8 4,12 0,5 4,9 9,11 6,2 13,1 19,1 5,0 10,1 15,-1 3,-3 0,-7 -2,-9 -9,3 -15,-5 -21,-10z"/>
 </g>
</svg>
