<?xml version="1.0" encoding="UTF-8"?>
<!DOCTYPE svg PUBLIC "-//W3C//DTD SVG 1.1//EN" "http://www.w3.org/Graphics/SVG/1.1/DTD/svg11.dtd">
<!-- Creator: CorelDRAW X7 -->
<svg xmlns="http://www.w3.org/2000/svg" xml:space="preserve" width="20px" height="20px" version="1.1" style="shape-rendering:geometricPrecision; text-rendering:geometricPrecision; image-rendering:optimizeQuality; fill-rule:evenodd; clip-rule:evenodd"
viewBox="0 0 20 20"
 xmlns:xlink="http://www.w3.org/1999/xlink">
 <defs>
  <style type="text/css">
   <![CDATA[
    .fil0 {fill:#F4F4F4}
   ]]>
  </style>
 </defs>
 <g id="Layer_x0020_1">
  <metadata id="CorelCorpID_0Corel-Layer"/>
  <path class="fil0" d="M6 1l9 0c2,0 4,2 4,4l0 6c0,1 -1,2 -1,4 0,-3 0,-5 0,-8 0,-2 0,-3 -1,-4 -2,-2 -5,-1 -7,-1 -2,0 -4,-1 -6,0 -1,1 -2,3 -2,4 0,3 0,6 0,8 0,-1 -1,-2 -1,-3l0 -5c0,-3 2,-5 5,-5z"/>
  <path class="fil0" d="M5 7c0,-1 1,-2 2,-3 1,1 2,2 2,3 0,1 -1,1 -1,2 1,1 1,2 2,2 -1,1 -1,1 -2,1 -1,-1 -2,-3 -3,-5z"/>
  <path class="fil0" d="M18 15c0,-2 1,-3 1,-4l0 4c0,1 0,1 -1,2 0,-1 0,-1 0,-2z"/>
  <path class="fil0" d="M8 12c1,0 1,0 2,-1 0,1 1,1 1,1 1,0 2,-1 3,-1 1,1 2,2 1,4 1,0 2,1 2,3 0,1 -1,1 -2,2l-9 0c-3,-1 -5,-3 -5,-5l0 -4c0,1 1,2 1,3 0,2 1,4 3,4 2,1 4,0 6,0 1,0 3,1 4,0 1,-1 0,-2 0,-3 -3,1 -5,-1 -7,-3z"/>
 </g>
</svg>
