<?xml version="1.0" encoding="UTF-8" ?>
<!DOCTYPE svg PUBLIC "-//W3C//DTD SVG 1.1//EN" "http://www.w3.org/Graphics/SVG/1.1/DTD/svg11.dtd">
<svg width="48pt" height="48pt" viewBox="0 0 48 48" version="1.1" xmlns="http://www.w3.org/2000/svg">
<path fill="#f7f7f7" d=" M 0.00 0.00 L 12.58 0.00 C 6.14 0.81 0.83 6.04 0.00 12.48 L 0.00 0.00 Z" />
<path fill="#2996b0" d=" M 12.58 0.00 L 35.51 0.00 C 41.45 0.69 46.57 5.04 48.00 10.88 L 48.00 26.04 C 46.79 29.24 45.77 32.52 45.21 35.91 C 45.85 29.28 45.37 22.60 45.51 15.96 C 45.72 11.92 44.27 7.66 40.89 5.24 C 36.08 1.53 29.63 3.09 24.02 2.77 C 18.70 3.06 12.68 1.69 7.98 4.88 C 4.99 6.92 2.90 10.29 2.88 13.98 C 2.73 21.01 2.68 28.06 2.95 35.08 C 2.52 31.86 1.29 28.83 0.00 25.87 L 0.00 12.48 C 0.83 6.04 6.14 0.81 12.58 0.00 Z" />
<path fill="#f7f7f7" d=" M 35.51 0.00 L 48.00 0.00 L 48.00 10.88 C 46.57 5.04 41.45 0.69 35.51 0.00 Z" />
<path fill="#f7f7f7" d=" M 7.98 4.88 C 12.68 1.69 18.70 3.06 24.02 2.77 C 29.63 3.09 36.08 1.53 40.89 5.24 C 44.27 7.66 45.72 11.92 45.51 15.96 C 45.37 22.60 45.85 29.28 45.21 35.91 C 44.85 37.85 44.52 39.92 45.85 41.60 C 46.61 40.23 47.34 38.84 48.00 37.42 L 48.00 48.00 L 36.10 48.00 C 38.48 47.26 41.07 45.76 41.31 43.00 C 42.10 39.83 39.52 37.50 37.72 35.30 C 39.07 31.60 36.00 28.72 32.95 27.30 C 30.67 27.14 28.95 29.37 26.71 29.47 C 25.59 28.87 24.59 28.08 23.61 27.28 C 21.71 25.41 20.01 23.35 18.38 21.25 C 19.43 19.51 20.66 17.84 21.32 15.90 C 20.17 13.21 18.17 10.37 15.10 9.80 C 12.60 11.09 9.47 13.53 10.43 16.74 C 11.85 21.71 16.02 25.19 19.43 28.84 C 23.99 32.92 28.91 39.28 35.86 37.33 C 37.72 39.12 40.29 42.29 37.45 44.51 C 33.86 46.00 29.80 45.14 26.00 45.34 C 20.78 45.12 15.41 45.99 10.31 44.54 C 6.38 43.05 3.28 39.34 2.95 35.08 C 2.68 28.06 2.73 21.01 2.88 13.98 C 2.90 10.29 4.99 6.92 7.98 4.88 Z" />
<path fill="#2996b0" d=" M 10.43 16.74 C 9.47 13.53 12.60 11.09 15.10 9.80 C 18.17 10.37 20.17 13.21 21.32 15.90 C 20.66 17.84 19.43 19.51 18.38 21.25 C 20.01 23.35 21.71 25.41 23.61 27.28 C 22.21 27.80 20.82 28.32 19.43 28.84 C 16.02 25.19 11.85 21.71 10.43 16.74 Z" />
<path fill="#05bac2" d=" M 45.21 35.91 C 45.77 32.52 46.79 29.24 48.00 26.04 L 48.00 37.42 C 47.34 38.84 46.61 40.23 45.85 41.60 C 44.52 39.92 44.85 37.85 45.21 35.91 Z" />
<path fill="#05bac2" d=" M 19.43 28.84 C 20.82 28.32 22.21 27.80 23.61 27.28 C 24.59 28.08 25.59 28.87 26.71 29.47 C 28.95 29.37 30.67 27.14 32.95 27.30 C 36.00 28.72 39.07 31.60 37.72 35.30 C 39.52 37.50 42.10 39.83 41.31 43.00 C 41.07 45.76 38.48 47.26 36.10 48.00 L 12.40 48.00 C 5.99 47.06 0.66 41.81 0.00 35.30 L 0.00 25.87 C 1.29 28.83 2.52 31.86 2.95 35.08 C 3.28 39.34 6.38 43.05 10.31 44.54 C 15.41 45.99 20.78 45.12 26.00 45.34 C 29.80 45.14 33.86 46.00 37.45 44.51 C 40.29 42.29 37.72 39.12 35.86 37.33 C 28.91 39.28 23.99 32.92 19.43 28.84 Z" />
<path fill="#f7f7f7" d=" M 0.00 35.30 C 0.66 41.81 5.99 47.06 12.40 48.00 L 0.00 48.00 L 0.00 35.30 Z" />
</svg>
